<svg xmlns="http://www.w3.org/2000/svg" xmlns:xlink="http://www.w3.org/1999/xlink" width="1080" zoomAndPan="magnify" viewBox="0 0 810 1439.999935" height="1920" preserveAspectRatio="xMidYMid meet" version="1.0"><defs><filter x="0%" y="0%" width="100%" height="100%" id="ddb4852d6e"><feColorMatrix values="0 0 0 0 1 0 0 0 0 1 0 0 0 0 1 0 0 0 1 0" color-interpolation-filters="sRGB"/></filter><mask id="6effa3862c"><g filter="url(#ddb4852d6e)"><rect x="-81" width="972" fill="#000000" y="-143.999994" height="1727.999922" fill-opacity="0.6"/></g></mask><clipPath id="6526759b9d"><path d="M 0.507812 0 L 427.257812 0 L 427.257812 1440 L 0.507812 1440 Z M 0.507812 0 " clip-rule="nonzero"/></clipPath><clipPath id="f497dfae04"><rect x="0" width="429" y="0" height="1440"/></clipPath></defs><rect x="-81" width="972" fill="#ffffff" y="-143.999994" height="1727.999922" fill-opacity="1"/><rect x="-81" width="972" fill="#ffffff" y="-143.999994" height="1727.999922" fill-opacity="1"/><g mask="url(#6effa3862c)"><g transform="matrix(1, 0, 0, 1, 191, -0.000000000000101068)"><g clip-path="url(#f497dfae04)"><g clip-path="url(#6526759b9d)"><path fill="#1e1e1e" d="M 92.351562 1345.300781 L 95.152344 1136.101562 C 95.160156 1135.710938 95.304688 1135.34375 95.566406 1135.046875 C 95.824219 1134.742188 96.1875 1134.527344 96.589844 1134.445312 C 104.472656 1132.632812 111.117188 1131.601562 116.53125 1131.347656 C 116.890625 1131.332031 117.074219 1131.152344 117.082031 1130.8125 C 117.355469 1082.789062 117.484375 1036.003906 117.476562 990.445312 C 117.460938 968.714844 118.027344 946.140625 118.1875 924.351562 C 118.207031 922.640625 119.121094 921.585938 120.933594 921.1875 L 137.558594 917.523438 C 138.074219 917.402344 138.328125 917.105469 138.328125 916.621094 C 138.339844 891.46875 138.324219 866.429688 138.285156 841.5 C 138.285156 837.058594 137.648438 832.726562 137.691406 828.230469 C 138.039062 783.972656 138.445312 743.6875 138.910156 707.378906 C 138.96875 703.03125 139.347656 698.050781 140.042969 692.441406 C 140.09375 692.046875 140.253906 691.671875 140.507812 691.351562 C 140.761719 691.03125 141.101562 690.78125 141.496094 690.621094 C 146.976562 688.375 153.128906 686.769531 159.953125 685.808594 C 160.136719 685.78125 160.304688 685.699219 160.425781 685.566406 C 160.546875 685.4375 160.617188 685.273438 160.621094 685.097656 L 163.847656 428.976562 C 163.851562 428.671875 163.9375 428.367188 164.101562 428.097656 C 164.269531 427.828125 164.503906 427.605469 164.789062 427.441406 L 181.070312 418.15625 C 181.335938 418.007812 181.554688 417.792969 181.710938 417.542969 C 181.863281 417.289062 181.941406 417.003906 181.941406 416.714844 C 181.699219 392.050781 181.351562 368.996094 180.894531 347.554688 C 180.851562 345.441406 182.332031 340.25 185.746094 341.1875 C 186.472656 341.382812 186.832031 341.132812 186.820312 340.4375 L 186.546875 282.742188 C 186.542969 282.332031 186.628906 281.925781 186.796875 281.546875 C 186.96875 281.167969 187.214844 280.824219 187.53125 280.535156 C 187.84375 280.242188 188.21875 280.011719 188.628906 279.855469 C 189.039062 279.695312 189.484375 279.613281 189.929688 279.613281 L 193.371094 279.613281 C 193.953125 279.613281 194.242188 279.34375 194.242188 278.808594 C 193.875 255.992188 193.695312 230.726562 193.703125 203.015625 C 193.703125 196.015625 194.351562 190.195312 195.652344 185.550781 C 196.367188 182.980469 198 180.988281 200.546875 179.570312 C 200.992188 179.320312 201.210938 178.953125 201.210938 178.472656 C 201.007812 156.648438 200.980469 134.523438 201.125 112.109375 C 201.15625 108.164062 202.519531 105.636719 205.484375 103.1875 C 205.851562 102.875 206.046875 102.488281 206.078125 102.023438 C 206.582031 90.976562 206.886719 79.269531 206.992188 66.902344 C 207.007812 65.125 206.746094 63.519531 208.707031 62.675781 C 208.929688 62.582031 209.121094 62.429688 209.257812 62.234375 C 209.390625 62.039062 209.460938 61.8125 209.460938 61.582031 L 208.808594 0.488281 C 208.808594 0.226562 208.949219 0.0976562 209.230469 0.0976562 L 212.511719 0.0859375 C 212.722656 0.0859375 212.832031 0.183594 212.832031 0.378906 L 212.207031 74.648438 C 212.207031 74.820312 212.257812 74.992188 212.355469 75.140625 C 212.453125 75.289062 212.59375 75.410156 212.757812 75.492188 L 215.519531 76.800781 C 215.792969 76.929688 216.027344 77.125 216.191406 77.367188 C 216.355469 77.605469 216.441406 77.882812 216.445312 78.164062 C 216.667969 95.078125 216.835938 110.902344 216.941406 125.632812 C 217 134.941406 217.679688 144.289062 218.148438 153.609375 C 218.175781 154.128906 218.398438 154.5625 218.816406 154.910156 C 221.558594 157.25 224.027344 158.371094 224.058594 162.332031 C 224.144531 172.449219 223.9375 182.566406 223.433594 192.675781 C 222.804688 205.640625 222.453125 217.996094 222.386719 229.738281 C 222.386719 229.953125 222.445312 230.164062 222.554688 230.355469 C 222.664062 230.546875 222.820312 230.710938 223.011719 230.835938 L 229.996094 235.316406 C 230.492188 235.628906 230.738281 236.054688 230.738281 236.597656 L 231.203125 302.414062 C 231.210938 302.84375 231.375 303.203125 231.695312 303.5 C 232.675781 304.390625 233.710938 305.242188 234.804688 306.050781 C 238.523438 308.835938 238.1875 311.9375 238.261719 316.164062 C 238.570312 334.726562 238.308594 353.234375 237.476562 371.679688 C 237.171875 378.394531 237.332031 385.296875 237.070312 391.96875 C 237.050781 392.441406 237.195312 392.867188 237.503906 393.242188 C 239.808594 396.085938 242.152344 399.0625 244.535156 402.175781 C 245.882812 403.941406 245.726562 405.613281 245.753906 407.671875 C 246.015625 423.355469 245.777344 438.816406 245.042969 454.054688 C 244.402344 467.589844 244.375 481.820312 243.359375 495.890625 C 242.953125 501.453125 243.066406 506.992188 242.761719 512.59375 C 242.734375 513.039062 242.933594 513.367188 243.359375 513.570312 L 261.191406 522.320312 C 261.832031 522.640625 262.148438 523.132812 262.148438 523.800781 L 263.296875 758.164062 C 263.300781 758.398438 263.394531 758.628906 263.558594 758.808594 C 263.71875 758.992188 263.945312 759.117188 264.199219 759.167969 L 283.367188 762.804688 C 283.570312 762.84375 283.75 762.945312 283.882812 763.089844 C 284.015625 763.234375 284.089844 763.417969 284.09375 763.605469 L 287.363281 989.128906 C 287.371094 989.65625 287.636719 989.945312 288.160156 989.996094 L 303.003906 991.578125 C 303.238281 991.605469 303.453125 991.707031 303.613281 991.867188 C 303.769531 992.039062 303.859375 992.25 303.859375 992.472656 C 303.875 1014.660156 305.109375 1036.972656 305.398438 1059.007812 C 305.644531 1078.886719 306.617188 1098.464844 306.867188 1118.523438 C 307.140625 1141.945312 308.417969 1165.335938 308.390625 1188.699219 C 308.390625 1189.175781 308.652344 1189.40625 309.175781 1189.40625 L 324.84375 1189.40625 C 325.464844 1189.40625 325.785156 1189.695312 325.804688 1190.265625 C 326.636719 1212.746094 327.101562 1234.621094 327.199219 1255.894531 C 327.34375 1284.761719 328.636719 1313.621094 328.679688 1342.453125 C 328.679688 1342.964844 328.953125 1343.21875 329.507812 1343.21875 L 350.519531 1343.21875 C 350.808594 1343.21875 351.085938 1343.320312 351.292969 1343.507812 C 351.496094 1343.6875 351.617188 1343.941406 351.625 1344.203125 L 352.046875 1359.972656 C 352.054688 1360.390625 352.292969 1360.601562 352.757812 1360.601562 L 374.207031 1360.601562 C 374.972656 1360.601562 375.375 1360.953125 375.414062 1361.65625 L 376.34375 1381.023438 C 376.363281 1381.449219 376.601562 1381.671875 377.070312 1381.671875 L 424.949219 1381.671875 C 425.433594 1381.671875 425.679688 1381.890625 425.691406 1382.335938 L 427.257812 1434.78125 C 427.261719 1435.027344 427.15625 1435.265625 426.96875 1435.453125 C 426.777344 1435.628906 426.515625 1435.730469 426.242188 1435.742188 C 389.472656 1436.34375 351.769531 1436.207031 314.214844 1436.785156 C 273.957031 1437.40625 233.910156 1437.773438 194.066406 1437.867188 C 184.445312 1437.890625 174.757812 1437.984375 165.007812 1438.148438 C 113.027344 1438.996094 58.480469 1439.339844 1.367188 1439.167969 C 0.824219 1439.167969 0.546875 1438.914062 0.539062 1438.402344 C 0.394531 1426.035156 0.792969 1411.96875 1.742188 1396.191406 C 2.054688 1390.984375 2.207031 1385.6875 2.207031 1380.292969 C 2.207031 1380.183594 2.230469 1380.082031 2.273438 1379.988281 C 2.320312 1379.894531 2.382812 1379.808594 2.464844 1379.730469 C 2.546875 1379.65625 2.644531 1379.605469 2.75 1379.5625 C 2.855469 1379.527344 2.964844 1379.511719 3.078125 1379.511719 L 43.335938 1381.042969 C 43.839844 1381.058594 44.097656 1380.835938 44.105469 1380.371094 L 44.453125 1363.894531 C 44.464844 1363.410156 44.730469 1363.15625 45.253906 1363.121094 L 68.300781 1361.429688 C 68.792969 1361.394531 69.046875 1361.15625 69.054688 1360.714844 L 69.550781 1345.582031 C 69.554688 1345.464844 69.582031 1345.34375 69.636719 1345.242188 C 69.691406 1345.132812 69.765625 1345.039062 69.863281 1344.953125 C 69.957031 1344.878906 70.066406 1344.816406 70.1875 1344.773438 C 70.308594 1344.742188 70.4375 1344.722656 70.566406 1344.722656 L 91.582031 1345.972656 C 92.09375 1346 92.351562 1345.777344 92.351562 1345.300781 Z M 92.351562 1345.300781 " fill-opacity="1" fill-rule="nonzero"/></g></g></g></g></svg>